<mxfile host="app.diagrams.net" agent="Mozilla/5.0 (Windows NT 10.0; Win64; x64) AppleWebKit/537.36 (KHTML, like Gecko) Chrome/132.0.0.0 Safari/537.36" version="26.0.11">
  <diagram id="C5RBs43oDa-KdzZeNtuy" name="Page-1">
    <mxGraphModel dx="1105" dy="586" grid="1" gridSize="10" guides="1" tooltips="1" connect="1" arrows="1" fold="1" page="1" pageScale="1" pageWidth="827" pageHeight="1169" math="0" shadow="0">
      <root>
        <mxCell id="WIyWlLk6GJQsqaUBKTNV-0" />
        <mxCell id="WIyWlLk6GJQsqaUBKTNV-1" parent="WIyWlLk6GJQsqaUBKTNV-0" />
        <mxCell id="WIyWlLk6GJQsqaUBKTNV-2" value="" style="rounded=0;html=1;jettySize=auto;orthogonalLoop=1;fontSize=11;endArrow=block;endFill=0;endSize=8;strokeWidth=1;shadow=0;labelBackgroundColor=none;edgeStyle=orthogonalEdgeStyle;" parent="WIyWlLk6GJQsqaUBKTNV-1" source="WIyWlLk6GJQsqaUBKTNV-3" target="WIyWlLk6GJQsqaUBKTNV-6" edge="1">
          <mxGeometry relative="1" as="geometry" />
        </mxCell>
        <mxCell id="WIyWlLk6GJQsqaUBKTNV-3" value="Search" style="rounded=1;whiteSpace=wrap;html=1;fontSize=12;glass=0;strokeWidth=1;shadow=0;" parent="WIyWlLk6GJQsqaUBKTNV-1" vertex="1">
          <mxGeometry x="160" y="80" width="120" height="40" as="geometry" />
        </mxCell>
        <mxCell id="WIyWlLk6GJQsqaUBKTNV-4" value="Yes" style="rounded=0;html=1;jettySize=auto;orthogonalLoop=1;fontSize=11;endArrow=block;endFill=0;endSize=8;strokeWidth=1;shadow=0;labelBackgroundColor=none;edgeStyle=orthogonalEdgeStyle;" parent="WIyWlLk6GJQsqaUBKTNV-1" source="WIyWlLk6GJQsqaUBKTNV-6" edge="1">
          <mxGeometry y="20" relative="1" as="geometry">
            <mxPoint as="offset" />
            <mxPoint x="220" y="310" as="targetPoint" />
            <Array as="points">
              <mxPoint x="220" y="270" />
              <mxPoint x="220" y="270" />
            </Array>
          </mxGeometry>
        </mxCell>
        <mxCell id="WIyWlLk6GJQsqaUBKTNV-5" value="No" style="edgeStyle=orthogonalEdgeStyle;rounded=0;html=1;jettySize=auto;orthogonalLoop=1;fontSize=11;endArrow=block;endFill=0;endSize=8;strokeWidth=1;shadow=0;labelBackgroundColor=none;entryX=1;entryY=0.25;entryDx=0;entryDy=0;" parent="WIyWlLk6GJQsqaUBKTNV-1" target="WIyWlLk6GJQsqaUBKTNV-3" edge="1">
          <mxGeometry y="10" relative="1" as="geometry">
            <mxPoint as="offset" />
            <mxPoint x="270" y="210" as="sourcePoint" />
            <mxPoint x="330" y="130" as="targetPoint" />
            <Array as="points">
              <mxPoint x="300" y="210" />
              <mxPoint x="300" y="90" />
            </Array>
          </mxGeometry>
        </mxCell>
        <mxCell id="WIyWlLk6GJQsqaUBKTNV-6" value="Found?" style="rhombus;whiteSpace=wrap;html=1;shadow=0;fontFamily=Helvetica;fontSize=12;align=center;strokeWidth=1;spacing=6;spacingTop=-4;" parent="WIyWlLk6GJQsqaUBKTNV-1" vertex="1">
          <mxGeometry x="170" y="170" width="100" height="80" as="geometry" />
        </mxCell>
        <mxCell id="hHLxcJwBOpJ3mUkjr9zK-4" value="" style="edgeStyle=orthogonalEdgeStyle;rounded=0;orthogonalLoop=1;jettySize=auto;html=1;" edge="1" parent="WIyWlLk6GJQsqaUBKTNV-1" source="hHLxcJwBOpJ3mUkjr9zK-2" target="hHLxcJwBOpJ3mUkjr9zK-3">
          <mxGeometry relative="1" as="geometry" />
        </mxCell>
        <mxCell id="hHLxcJwBOpJ3mUkjr9zK-6" value="" style="edgeStyle=orthogonalEdgeStyle;rounded=0;orthogonalLoop=1;jettySize=auto;html=1;" edge="1" parent="WIyWlLk6GJQsqaUBKTNV-1" source="hHLxcJwBOpJ3mUkjr9zK-2" target="hHLxcJwBOpJ3mUkjr9zK-5">
          <mxGeometry relative="1" as="geometry" />
        </mxCell>
        <mxCell id="hHLxcJwBOpJ3mUkjr9zK-2" value="Close Enough?" style="rhombus;whiteSpace=wrap;html=1;" vertex="1" parent="WIyWlLk6GJQsqaUBKTNV-1">
          <mxGeometry x="170" y="310" width="100" height="80" as="geometry" />
        </mxCell>
        <mxCell id="hHLxcJwBOpJ3mUkjr9zK-10" value="" style="edgeStyle=orthogonalEdgeStyle;rounded=0;orthogonalLoop=1;jettySize=auto;html=1;" edge="1" parent="WIyWlLk6GJQsqaUBKTNV-1" source="hHLxcJwBOpJ3mUkjr9zK-3" target="hHLxcJwBOpJ3mUkjr9zK-7">
          <mxGeometry relative="1" as="geometry" />
        </mxCell>
        <mxCell id="hHLxcJwBOpJ3mUkjr9zK-3" value="Pose estimate" style="rounded=1;whiteSpace=wrap;html=1;" vertex="1" parent="WIyWlLk6GJQsqaUBKTNV-1">
          <mxGeometry x="160" y="440" width="120" height="60" as="geometry" />
        </mxCell>
        <mxCell id="hHLxcJwBOpJ3mUkjr9zK-5" value="move toward" style="whiteSpace=wrap;html=1;" vertex="1" parent="WIyWlLk6GJQsqaUBKTNV-1">
          <mxGeometry x="340" y="320" width="80" height="60" as="geometry" />
        </mxCell>
        <mxCell id="hHLxcJwBOpJ3mUkjr9zK-9" value="" style="edgeStyle=orthogonalEdgeStyle;rounded=0;orthogonalLoop=1;jettySize=auto;html=1;" edge="1" parent="WIyWlLk6GJQsqaUBKTNV-1" source="hHLxcJwBOpJ3mUkjr9zK-7" target="hHLxcJwBOpJ3mUkjr9zK-8">
          <mxGeometry relative="1" as="geometry" />
        </mxCell>
        <mxCell id="hHLxcJwBOpJ3mUkjr9zK-26" value="" style="edgeStyle=orthogonalEdgeStyle;rounded=0;orthogonalLoop=1;jettySize=auto;html=1;" edge="1" parent="WIyWlLk6GJQsqaUBKTNV-1" source="hHLxcJwBOpJ3mUkjr9zK-7" target="hHLxcJwBOpJ3mUkjr9zK-25">
          <mxGeometry relative="1" as="geometry" />
        </mxCell>
        <mxCell id="hHLxcJwBOpJ3mUkjr9zK-7" value="turn_L" style="rhombus;whiteSpace=wrap;html=1;" vertex="1" parent="WIyWlLk6GJQsqaUBKTNV-1">
          <mxGeometry x="180" y="530" width="80" height="80" as="geometry" />
        </mxCell>
        <mxCell id="hHLxcJwBOpJ3mUkjr9zK-14" value="" style="edgeStyle=orthogonalEdgeStyle;rounded=0;orthogonalLoop=1;jettySize=auto;html=1;" edge="1" parent="WIyWlLk6GJQsqaUBKTNV-1" source="hHLxcJwBOpJ3mUkjr9zK-8" target="hHLxcJwBOpJ3mUkjr9zK-13">
          <mxGeometry relative="1" as="geometry" />
        </mxCell>
        <mxCell id="hHLxcJwBOpJ3mUkjr9zK-28" value="" style="edgeStyle=orthogonalEdgeStyle;rounded=0;orthogonalLoop=1;jettySize=auto;html=1;" edge="1" parent="WIyWlLk6GJQsqaUBKTNV-1" source="hHLxcJwBOpJ3mUkjr9zK-8" target="hHLxcJwBOpJ3mUkjr9zK-27">
          <mxGeometry relative="1" as="geometry" />
        </mxCell>
        <mxCell id="hHLxcJwBOpJ3mUkjr9zK-8" value="turn_R" style="rhombus;whiteSpace=wrap;html=1;" vertex="1" parent="WIyWlLk6GJQsqaUBKTNV-1">
          <mxGeometry x="180" y="640" width="80" height="80" as="geometry" />
        </mxCell>
        <mxCell id="hHLxcJwBOpJ3mUkjr9zK-16" value="" style="edgeStyle=orthogonalEdgeStyle;rounded=0;orthogonalLoop=1;jettySize=auto;html=1;" edge="1" parent="WIyWlLk6GJQsqaUBKTNV-1" source="hHLxcJwBOpJ3mUkjr9zK-13" target="hHLxcJwBOpJ3mUkjr9zK-15">
          <mxGeometry relative="1" as="geometry" />
        </mxCell>
        <mxCell id="hHLxcJwBOpJ3mUkjr9zK-13" value="Hand gesture" style="rhombus;whiteSpace=wrap;html=1;" vertex="1" parent="WIyWlLk6GJQsqaUBKTNV-1">
          <mxGeometry x="180" y="800" width="80" height="80" as="geometry" />
        </mxCell>
        <mxCell id="hHLxcJwBOpJ3mUkjr9zK-18" value="" style="edgeStyle=orthogonalEdgeStyle;rounded=0;orthogonalLoop=1;jettySize=auto;html=1;" edge="1" parent="WIyWlLk6GJQsqaUBKTNV-1" source="hHLxcJwBOpJ3mUkjr9zK-15" target="hHLxcJwBOpJ3mUkjr9zK-17">
          <mxGeometry relative="1" as="geometry" />
        </mxCell>
        <mxCell id="hHLxcJwBOpJ3mUkjr9zK-15" value="hand gesture detection" style="whiteSpace=wrap;html=1;" vertex="1" parent="WIyWlLk6GJQsqaUBKTNV-1">
          <mxGeometry x="320" y="810" width="120" height="60" as="geometry" />
        </mxCell>
        <mxCell id="hHLxcJwBOpJ3mUkjr9zK-22" value="" style="edgeStyle=orthogonalEdgeStyle;rounded=0;orthogonalLoop=1;jettySize=auto;html=1;" edge="1" parent="WIyWlLk6GJQsqaUBKTNV-1" source="hHLxcJwBOpJ3mUkjr9zK-17" target="hHLxcJwBOpJ3mUkjr9zK-19">
          <mxGeometry relative="1" as="geometry" />
        </mxCell>
        <mxCell id="hHLxcJwBOpJ3mUkjr9zK-33" value="" style="edgeStyle=orthogonalEdgeStyle;rounded=0;orthogonalLoop=1;jettySize=auto;html=1;" edge="1" parent="WIyWlLk6GJQsqaUBKTNV-1" source="hHLxcJwBOpJ3mUkjr9zK-17" target="hHLxcJwBOpJ3mUkjr9zK-32">
          <mxGeometry relative="1" as="geometry" />
        </mxCell>
        <mxCell id="hHLxcJwBOpJ3mUkjr9zK-17" value="up" style="rhombus;whiteSpace=wrap;html=1;" vertex="1" parent="WIyWlLk6GJQsqaUBKTNV-1">
          <mxGeometry x="340" y="940" width="80" height="80" as="geometry" />
        </mxCell>
        <mxCell id="hHLxcJwBOpJ3mUkjr9zK-23" value="" style="edgeStyle=orthogonalEdgeStyle;rounded=0;orthogonalLoop=1;jettySize=auto;html=1;" edge="1" parent="WIyWlLk6GJQsqaUBKTNV-1" source="hHLxcJwBOpJ3mUkjr9zK-19" target="hHLxcJwBOpJ3mUkjr9zK-20">
          <mxGeometry relative="1" as="geometry" />
        </mxCell>
        <mxCell id="hHLxcJwBOpJ3mUkjr9zK-35" value="" style="edgeStyle=orthogonalEdgeStyle;rounded=0;orthogonalLoop=1;jettySize=auto;html=1;" edge="1" parent="WIyWlLk6GJQsqaUBKTNV-1" source="hHLxcJwBOpJ3mUkjr9zK-19" target="hHLxcJwBOpJ3mUkjr9zK-34">
          <mxGeometry relative="1" as="geometry" />
        </mxCell>
        <mxCell id="hHLxcJwBOpJ3mUkjr9zK-19" value="down" style="rhombus;whiteSpace=wrap;html=1;" vertex="1" parent="WIyWlLk6GJQsqaUBKTNV-1">
          <mxGeometry x="340" y="1050" width="80" height="80" as="geometry" />
        </mxCell>
        <mxCell id="hHLxcJwBOpJ3mUkjr9zK-31" style="edgeStyle=orthogonalEdgeStyle;rounded=0;orthogonalLoop=1;jettySize=auto;html=1;exitX=1;exitY=0.5;exitDx=0;exitDy=0;entryX=1;entryY=0;entryDx=0;entryDy=0;" edge="1" parent="WIyWlLk6GJQsqaUBKTNV-1" source="hHLxcJwBOpJ3mUkjr9zK-20" target="WIyWlLk6GJQsqaUBKTNV-3">
          <mxGeometry relative="1" as="geometry">
            <Array as="points">
              <mxPoint x="460" y="1220" />
              <mxPoint x="460" y="90" />
              <mxPoint x="280" y="90" />
            </Array>
          </mxGeometry>
        </mxCell>
        <mxCell id="hHLxcJwBOpJ3mUkjr9zK-20" value="reset" style="rhombus;whiteSpace=wrap;html=1;" vertex="1" parent="WIyWlLk6GJQsqaUBKTNV-1">
          <mxGeometry x="340" y="1180" width="80" height="80" as="geometry" />
        </mxCell>
        <mxCell id="hHLxcJwBOpJ3mUkjr9zK-29" style="edgeStyle=orthogonalEdgeStyle;rounded=0;orthogonalLoop=1;jettySize=auto;html=1;exitX=1;exitY=0.5;exitDx=0;exitDy=0;entryX=1;entryY=0.25;entryDx=0;entryDy=0;" edge="1" parent="WIyWlLk6GJQsqaUBKTNV-1" source="hHLxcJwBOpJ3mUkjr9zK-25" target="WIyWlLk6GJQsqaUBKTNV-3">
          <mxGeometry relative="1" as="geometry" />
        </mxCell>
        <mxCell id="hHLxcJwBOpJ3mUkjr9zK-25" value="turn cw 90" style="whiteSpace=wrap;html=1;" vertex="1" parent="WIyWlLk6GJQsqaUBKTNV-1">
          <mxGeometry x="320" y="540" width="120" height="60" as="geometry" />
        </mxCell>
        <mxCell id="hHLxcJwBOpJ3mUkjr9zK-30" style="edgeStyle=orthogonalEdgeStyle;rounded=0;orthogonalLoop=1;jettySize=auto;html=1;exitX=1;exitY=0.5;exitDx=0;exitDy=0;entryX=1;entryY=0.75;entryDx=0;entryDy=0;" edge="1" parent="WIyWlLk6GJQsqaUBKTNV-1" source="hHLxcJwBOpJ3mUkjr9zK-27" target="WIyWlLk6GJQsqaUBKTNV-3">
          <mxGeometry relative="1" as="geometry">
            <Array as="points">
              <mxPoint x="460" y="680" />
              <mxPoint x="460" y="90" />
              <mxPoint x="280" y="90" />
            </Array>
          </mxGeometry>
        </mxCell>
        <mxCell id="hHLxcJwBOpJ3mUkjr9zK-27" value="turn ccw 90" style="whiteSpace=wrap;html=1;" vertex="1" parent="WIyWlLk6GJQsqaUBKTNV-1">
          <mxGeometry x="320" y="650" width="120" height="60" as="geometry" />
        </mxCell>
        <mxCell id="hHLxcJwBOpJ3mUkjr9zK-36" style="edgeStyle=orthogonalEdgeStyle;rounded=0;orthogonalLoop=1;jettySize=auto;html=1;exitX=1;exitY=0.5;exitDx=0;exitDy=0;entryX=1;entryY=0.25;entryDx=0;entryDy=0;" edge="1" parent="WIyWlLk6GJQsqaUBKTNV-1" source="hHLxcJwBOpJ3mUkjr9zK-32" target="WIyWlLk6GJQsqaUBKTNV-3">
          <mxGeometry relative="1" as="geometry" />
        </mxCell>
        <mxCell id="hHLxcJwBOpJ3mUkjr9zK-32" value="move up" style="whiteSpace=wrap;html=1;" vertex="1" parent="WIyWlLk6GJQsqaUBKTNV-1">
          <mxGeometry x="480" y="950" width="120" height="60" as="geometry" />
        </mxCell>
        <mxCell id="hHLxcJwBOpJ3mUkjr9zK-37" style="edgeStyle=orthogonalEdgeStyle;rounded=0;orthogonalLoop=1;jettySize=auto;html=1;exitX=1;exitY=0.5;exitDx=0;exitDy=0;entryX=1;entryY=0.25;entryDx=0;entryDy=0;" edge="1" parent="WIyWlLk6GJQsqaUBKTNV-1" source="hHLxcJwBOpJ3mUkjr9zK-34" target="WIyWlLk6GJQsqaUBKTNV-3">
          <mxGeometry relative="1" as="geometry" />
        </mxCell>
        <mxCell id="hHLxcJwBOpJ3mUkjr9zK-34" value="move down" style="whiteSpace=wrap;html=1;" vertex="1" parent="WIyWlLk6GJQsqaUBKTNV-1">
          <mxGeometry x="480" y="1060" width="120" height="60" as="geometry" />
        </mxCell>
      </root>
    </mxGraphModel>
  </diagram>
</mxfile>
